<?xml version="1.0" encoding="UTF-8" standalone="no"?>
<!-- Created with Inkscape (http://www.inkscape.org/) -->
<svg
   xmlns:svg="http://www.w3.org/2000/svg"
   xmlns="http://www.w3.org/2000/svg"
   version="1.0"
   width="744.09448"
   height="1052.3622"
   id="svg2">
  <defs
     id="defs4" />
  <g
     id="layer1">
    <g
       transform="translate(-16.543339,232.98257)"
       id="g2440">
      <path
         d="M 134.28571,158.07648 L 197.14286,158.07648 C 211.38858,158.07648 222.85715,169.54505 222.85715,183.79076 L 222.85715,255.21936 C 222.85715,269.46508 211.38858,280.93365 197.14286,280.93365 L 134.28571,280.93365 C 120.04,280.93365 108.57143,269.46508 108.57143,255.21936 L 108.57143,183.79076 C 108.57143,169.54505 120.04,158.07648 134.28571,158.07648 z"
         id="rect2383"
         style="fill:#000080;fill-opacity:0.95294118;stroke:#000000;stroke-opacity:0.01315792" />
      <path
         d="M 162.85715,269.50504 A 0,17.142857 0 1 1 162.85715,269.50504 A 0,17.142857 0 1 1 162.85715,269.50504 z"
         id="path2387"
         style="fill:#000080;fill-opacity:0.95294118;stroke:#000000;stroke-opacity:0.01315792" />
      <path
         d="M 178.57143,219.86218 A 13.214286,13.214286 0 1 1 152.14286,219.86218 A 13.214286,13.214286 0 1 1 178.57143,219.86218 z"
         id="path2401"
         style="fill:#ffffff;fill-opacity:0.95294118;stroke:#000000;stroke-opacity:0.01315792" />
      <path
         d="M 256.72193,158.37663 L 319.57908,158.37663 C 333.82479,158.37663 345.29337,169.8452 345.29337,184.09092 L 345.29337,255.51952 C 345.29337,269.76523 333.82479,281.2338 319.57908,281.2338 L 256.72193,281.2338 C 242.47622,281.2338 231.00764,269.76523 231.00764,255.51952 L 231.00764,184.09092 C 231.00764,169.8452 242.47622,158.37663 256.72193,158.37663 z"
         id="rect2405"
         style="fill:#000080;fill-opacity:0.95294118;stroke:#000000;stroke-opacity:0.01315792" />
      <path
         d="M 178.57143,219.86218 A 13.214286,13.214286 0 1 1 152.14286,219.86218 A 13.214286,13.214286 0 1 1 178.57143,219.86218 z"
         transform="translate(107.39599,-19.853569)"
         id="path2407"
         style="fill:#ffffff;fill-opacity:0.95294118;stroke:#000000;stroke-opacity:0.01315792" />
      <path
         d="M 178.57143,219.86218 A 13.214286,13.214286 0 1 1 152.14286,219.86218 A 13.214286,13.214286 0 1 1 178.57143,219.86218 z"
         transform="translate(144.78957,17.540011)"
         id="path2409"
         style="fill:#ffffff;fill-opacity:0.95294118;stroke:#000000;stroke-opacity:0.01315792" />
      <path
         d="M 378.80095,158.37663 L 441.65811,158.37663 C 455.90382,158.37663 467.37239,169.8452 467.37239,184.09092 L 467.37239,255.51952 C 467.37239,269.76523 455.90382,281.2338 441.65811,281.2338 L 378.80095,281.2338 C 364.55524,281.2338 353.08667,269.76523 353.08667,255.51952 L 353.08667,184.09092 C 353.08667,169.8452 364.55524,158.37663 378.80095,158.37663 z"
         id="rect2411"
         style="fill:#000080;fill-opacity:0.95294118;stroke:#000000;stroke-opacity:0.01315792" />
      <path
         d="M 178.57143,219.86218 A 13.214286,13.214286 0 1 1 152.14286,219.86218 A 13.214286,13.214286 0 1 1 178.57143,219.86218 z"
         transform="translate(245.97218,-1.1567823)"
         id="path2413"
         style="fill:#ffffff;fill-opacity:0.95294118;stroke:#000000;stroke-opacity:0.01315792" />
      <path
         d="M 178.57143,219.86218 A 13.214286,13.214286 0 1 1 152.14286,219.86218 A 13.214286,13.214286 0 1 1 178.57143,219.86218 z"
         transform="translate(218.47691,-33.051295)"
         id="path2415"
         style="fill:#ffffff;fill-opacity:0.95294118;stroke:#000000;stroke-opacity:0.01315792" />
      <path
         d="M 178.57143,219.86218 A 13.214286,13.214286 0 1 1 152.14286,219.86218 A 13.214286,13.214286 0 1 1 178.57143,219.86218 z"
         transform="translate(273.46746,30.737746)"
         id="path2417"
         style="fill:#ffffff;fill-opacity:0.95294118;stroke:#000000;stroke-opacity:0.01315792" />
      <path
         d="M 135.7427,288.15433 L 198.59985,288.15433 C 212.84556,288.15433 224.31413,299.6229 224.31413,313.86861 L 224.31413,385.29721 C 224.31413,399.54293 212.84556,411.0115 198.59985,411.0115 L 135.7427,411.0115 C 121.49698,411.0115 110.02841,399.54293 110.02841,385.29721 L 110.02841,313.86861 C 110.02841,299.6229 121.49698,288.15433 135.7427,288.15433 z"
         id="rect2419"
         style="fill:#000080;fill-opacity:0.95294118;stroke:#000000;stroke-opacity:0.01315792" />
      <path
         d="M 255.62211,288.15433 L 318.47926,288.15433 C 332.72497,288.15433 344.19354,299.6229 344.19354,313.86861 L 344.19354,385.29721 C 344.19354,399.54293 332.72497,411.0115 318.47926,411.0115 L 255.62211,411.0115 C 241.37639,411.0115 229.90782,399.54293 229.90782,385.29721 L 229.90782,313.86861 C 229.90782,299.6229 241.37639,288.15433 255.62211,288.15433 z"
         id="rect2421"
         style="fill:#000080;fill-opacity:0.95294118;stroke:#000000;stroke-opacity:0.01315792" />
      <path
         d="M 377.70113,289.25415 L 440.55828,289.25415 C 454.804,289.25415 466.27257,300.72272 466.27257,314.96844 L 466.27257,386.39704 C 466.27257,400.64275 454.804,412.11132 440.55828,412.11132 L 377.70113,412.11132 C 363.45542,412.11132 351.98685,400.64275 351.98685,386.39704 L 351.98685,314.96844 C 351.98685,300.72272 363.45542,289.25415 377.70113,289.25415 z"
         id="rect2423"
         style="fill:#000080;fill-opacity:0.95294118;stroke:#000000;stroke-opacity:0.01315792" />
      <path
         d="M 178.57143,219.86218 A 13.214286,13.214286 0 1 1 152.14286,219.86218 A 13.214286,13.214286 0 1 1 178.57143,219.86218 z"
         transform="translate(-19.357147,109.28571)"
         id="path2425"
         style="fill:#ffffff;fill-opacity:0.95294118;stroke:#000000;stroke-opacity:0.01315792" />
      <path
         d="M 178.57143,219.86218 A 13.214286,13.214286 0 1 1 152.14286,219.86218 A 13.214286,13.214286 0 1 1 178.57143,219.86218 z"
         transform="translate(24.642853,109.28571)"
         id="path2427"
         style="fill:#ffffff;fill-opacity:0.95294118;stroke:#000000;stroke-opacity:0.01315792" />
      <path
         d="M 178.57143,219.86218 A 13.214286,13.214286 0 1 1 152.14286,219.86218 A 13.214286,13.214286 0 1 1 178.57143,219.86218 z"
         transform="translate(-17.782847,150.61715)"
         id="path2429"
         style="fill:#ffffff;fill-opacity:0.95294118;stroke:#000000;stroke-opacity:0.01315792" />
      <path
         d="M 178.57143,219.86218 A 13.214286,13.214286 0 1 1 152.14286,219.86218 A 13.214286,13.214286 0 1 1 178.57143,219.86218 z"
         transform="translate(25.857139,150.5)"
         id="path2431"
         style="fill:#ffffff;fill-opacity:0.95294118;stroke:#000000;stroke-opacity:0.01315792" />
      <path
         d="M 178.57143,219.86218 A 13.214286,13.214286 0 1 1 152.14286,219.86218 A 13.214286,13.214286 0 1 1 178.57143,219.86218 z"
         transform="translate(123.69354,129.72074)"
         id="path2433"
         style="fill:#ffffff;fill-opacity:0.95294118;stroke:#000000;stroke-opacity:0.01315792" />
      <path
         d="M 178.57143,219.86218 A 13.214286,13.214286 0 1 1 152.14286,219.86218 A 13.214286,13.214286 0 1 1 178.57143,219.86218 z"
         transform="translate(91.998637,95.626589)"
         id="path2435"
         style="fill:#ffffff;fill-opacity:0.95294118;stroke:#000000;stroke-opacity:0.01315792" />
      <path
         d="M 178.57143,219.86218 A 13.214286,13.214286 0 1 1 152.14286,219.86218 A 13.214286,13.214286 0 1 1 178.57143,219.86218 z"
         transform="translate(151.42857,95.5)"
         id="path2437"
         style="fill:#ffffff;fill-opacity:0.95294118;stroke:#000000;stroke-opacity:0.01315792" />
      <path
         d="M 178.57143,219.86218 A 13.214286,13.214286 0 1 1 152.14286,219.86218 A 13.214286,13.214286 0 1 1 178.57143,219.86218 z"
         transform="translate(93.098448,162.71507)"
         id="path2439"
         style="fill:#ffffff;fill-opacity:0.95294118;stroke:#000000;stroke-opacity:0.01315792" />
      <path
         d="M 178.57143,219.86218 A 13.214286,13.214286 0 1 1 152.14286,219.86218 A 13.214286,13.214286 0 1 1 178.57143,219.86218 z"
         transform="translate(151.42857,162.5)"
         id="path2441"
         style="fill:#ffffff;fill-opacity:0.95294118;stroke:#000000;stroke-opacity:0.01315792" />
      <path
         d="M 178.57143,219.86218 A 13.214286,13.214286 0 1 1 152.14286,219.86218 A 13.214286,13.214286 0 1 1 178.57143,219.86218 z"
         transform="translate(243.77257,104.42509)"
         id="path2443"
         style="fill:#ffffff;fill-opacity:0.95294118;stroke:#000000;stroke-opacity:0.01315792" />
      <path
         d="M 178.57143,219.86218 A 13.214286,13.214286 0 1 1 152.14286,219.86218 A 13.214286,13.214286 0 1 1 178.57143,219.86218 z"
         transform="translate(245.97218,157.01639)"
         id="path2445"
         style="fill:#ffffff;fill-opacity:0.95294118;stroke:#000000;stroke-opacity:0.01315792" />
      <path
         d="M 178.57143,219.86218 A 13.214286,13.214286 0 1 1 152.14286,219.86218 A 13.214286,13.214286 0 1 1 178.57143,219.86218 z"
         transform="translate(277.85714,104.5)"
         id="path2447"
         style="fill:#ffffff;fill-opacity:0.95294118;stroke:#000000;stroke-opacity:0.01315792" />
      <path
         d="M 178.57143,219.86218 A 13.214286,13.214286 0 1 1 152.14286,219.86218 A 13.214286,13.214286 0 1 1 178.57143,219.86218 z"
         transform="translate(210.77823,104.42508)"
         id="path2449"
         style="fill:#ffffff;fill-opacity:0.95294118;stroke:#000000;stroke-opacity:0.01315792" />
      <path
         d="M 178.57143,219.86218 A 13.214286,13.214286 0 1 1 152.14286,219.86218 A 13.214286,13.214286 0 1 1 178.57143,219.86218 z"
         transform="translate(211.87804,156.1162)"
         id="path2451"
         style="fill:#ffffff;fill-opacity:0.95294118;stroke:#000000;stroke-opacity:0.01315792" />
      <path
         d="M 178.57143,219.86218 A 13.214286,13.214286 0 1 1 152.14286,219.86218 A 13.214286,13.214286 0 1 1 178.57143,219.86218 z"
         transform="translate(277.8667,156.1162)"
         id="path2453"
         style="fill:#ffffff;fill-opacity:0.95294118;stroke:#000000;stroke-opacity:0.01315792" />
    </g>
  </g>
</svg>
